<?xml version="1.0" encoding="utf-8"?>
<svg xmlns="http://www.w3.org/2000/svg" xmlns:xlink="http://www.w3.org/1999/xlink" style="width: 0; height: 0; position: absolute;">  
  <symbol id="menu" viewBox="0 0 512 512">
    <circle cx="256" cy="256" r="252"/>
    <circle fill="white" cx="130" cy="256" r="50"/>
    <circle fill="white" cx="256" cy="256" r="50"/>
    <circle fill="white" cx="382" cy="256" r="50"/>    
  </symbol>
  <symbol id="edit-circle" viewBox="0 0 512 512">
    <path d="M 256,4 C 116.644,4 4,116.644 4,256 4,395.356 116.644,508 256,508 395.356,508 508,395.356 508,256 508,116.644 395.356,4 256,4 m 78.12,127.764 c 3.528,0 7.056,1.26 10.08,4.032 l 32.004,32.004 c 5.796,5.544 5.796,14.364 0,19.656 l -25.2,25.2 -51.66,-51.66 25.2,-25.2 c 2.52,-2.772 6.048,-4.032 9.576,-4.032 m -49.644,43.848 51.912,51.912 -152.712,152.712 h -51.912 v -51.912 z"/>
  </symbol>
  <symbol id="tick-circle" viewBox="0 0 512 512">
    <path d="M 256,4 A 252,252 0 0 1 508,256 252,252 0 0 1 256,508 252,252 0 0 1 4,256 252,252 0 0 1 256,4 M 230.8,369.4 407.2,193 371.668,157.468 230.8,298.084 152.932,220.468 117.4,256 Z"/>
  </symbol>
  <symbol id="cross-circle" viewBox="0 0 512 512">
    <path d="M 256,4 C 395.356,4 508,116.644 508,256 508,395.356 395.356,508 256,508 116.644,508 4,395.356 4,256 4,116.644 116.644,4 256,4 M 346.468,130 256,220.468 165.532,130 130,165.532 220.468,256 130,346.468 165.532,382 256,291.532 346.468,382 382,346.468 291.532,256 382,165.532 Z"/>
  </symbol>
  <symbol id="list" viewBox="0 0 24 24">
    <path d="M9,5V9H21V5M9,19H21V15H9M9,14H21V10H9M4,9H8V5H4M4,19H8V15H4M4,14H8V10H4V14Z"/>
  </symbol>  
  <symbol id="trophy" viewBox="0 0 24 24">    
    <path d="M7,2V4H2V11C2,12 3,13 4,13H7.2C7.6,14.9 8.6,16.6 11,16.9V19C8,19.2 8,20.3 8,21.6V22H16V21.7C16,20.4 16,19.3 13,19.1V17C15.5,16.7 16.5,15 16.8,13.1H20C21,13.1 22,12.1 22,11.1V4H17V2H7M9,4H15V12A3,3 0 0,1 12,15C10,15 9,13.66 9,12V4M4,6H7V8L7,11H4V6M17,6H20V11H17V6Z"/>
  </symbol>
  <symbol id="info" viewBox="0 0 24 24">  
    <path d="M11,9H13V7H11M12,20C7.59,20 4,16.41 4,12C4,7.59 7.59,4 12,4C16.41,4 20,7.59 20,12C20,16.41 16.41,20 12,20M12,2A10,10 0 0,0 2,12A10,10 0 0,0 12,22A10,10 0 0,0 22,12A10,10 0 0,0 12,2M11,17H13V11H11V17Z"/>   
  </symbol>  
  <symbol id="refresh" viewBox="0 0 24 24">
    <path d="M17.65,6.35C16.2,4.9 14.21,4 12,4A8,8 0 0,0 4,12A8,8 0 0,0 12,20C15.73,20 18.84,17.45 19.73,14H17.65C16.83,16.33 14.61,18 12,18A6,6 0 0,1 6,12A6,6 0 0,1 12,6C13.66,6 15.14,6.69 16.22,7.78L13,11H20V4L17.65,6.35Z"/>
  </symbol> 
  <symbol id="account" viewBox="0 0 24 24">
    <path d="M12,4A4,4 0 0,1 16,8A4,4 0 0,1 12,12A4,4 0 0,1 8,8A4,4 0 0,1 12,4M12,14C16.42,14 20,15.79 20,18V20H4V18C4,15.79 7.58,14 12,14Z" />
  </symbol>  
  <symbol id="chart" viewBox="0 0 24 24">
	<path d="M3,22V8H7V22H3M10,22V2H14V22H10M17,22V14H21V22H17Z" />
  </symbol>
</svg>